<?xml version="1.0" encoding="UTF-8"?>
<svg width="52px" height="48px" viewBox="0 0 52 48" version="1.1" xmlns="http://www.w3.org/2000/svg" xmlns:xlink="http://www.w3.org/1999/xlink">
    <!-- Generator: Sketch 64 (93537) - https://sketch.com -->
    <title>Eng</title>
    <desc>Created with Sketch.</desc>
    <g id="Eng" stroke="none" stroke-width="1" fill="none" fill-rule="evenodd">
        <g id="noun_english_912811" fill="#333333" fill-rule="nonzero">
            <path d="M45.6444444,0 L6.35555556,0 C2.83111111,0 0,2.65777778 0,5.95111111 L0,31.8222222 C0,35.1155556 2.83111111,37.7733333 6.35555556,37.7733333 L10.5155556,37.7733333 L10.5155556,46.6133333 C10.5155556,47.1333333 10.8622222,47.6533333 11.3822222,47.8844444 C11.6133333,48 11.7866667,48 12.0177778,48 C12.3644444,48 12.7111111,47.8844444 13,47.7111111 L26.1155556,37.7733333 L45.6444444,37.7733333 C49.1688889,37.7733333 52,35.1155556 52,31.8222222 L52,5.95111111 C52,2.65777778 49.1688889,0 45.6444444,0 Z M18.72,24 L10.0533333,24 L10.0533333,12.6177778 L18.4311111,12.6177778 L18.4311111,14.64 L12.4222222,14.64 L12.4222222,17.0666667 L17.9111111,17.0666667 L17.9111111,19.0311111 L12.3644444,19.0311111 L12.3644444,21.9777778 L18.6622222,21.9777778 L18.6622222,24 L18.72,24 Z M29.7555556,24 L27.3866667,24 L22.7644444,15.9111111 L22.7644444,24 L20.5688889,24 L20.5688889,12.6177778 L23.0533333,12.6177778 L27.56,20.5333333 L27.56,12.6177778 L29.7555556,12.6177778 L29.7555556,24 Z M42.0622222,24 L40.4444444,24 L40.2133333,22.5555556 C39.7511111,23.0755556 39.3466667,23.48 39,23.7111111 C38.3644444,24.1155556 37.6133333,24.2888889 36.6888889,24.2888889 C35.1866667,24.2888889 33.9155556,23.7688889 32.9911111,22.7288889 C32.0088889,21.6888889 31.4888889,20.2444444 31.4888889,18.3955556 C31.4888889,16.5466667 32.0088889,15.0444444 32.9911111,13.9466667 C33.9733333,12.8488889 35.36,12.2711111 37.0355556,12.2711111 C38.48,12.2711111 39.6355556,12.6177778 40.5022222,13.3688889 C41.3688889,14.12 41.8888889,15.0444444 42.0044444,16.1422222 L39.6355556,16.1422222 C39.4622222,15.3911111 39,14.8133333 38.3066667,14.5244444 C37.9022222,14.3511111 37.4977778,14.2933333 36.9777778,14.2933333 C36.0533333,14.2933333 35.3022222,14.64 34.7244444,15.3333333 C34.1466667,16.0266667 33.8577778,17.0666667 33.8577778,18.4533333 C33.8577778,19.84 34.2044444,20.8222222 34.84,21.4 C35.4755556,21.9777778 36.2266667,22.2666667 37.0355556,22.2666667 C37.8444444,22.2666667 38.48,22.0355556 39,21.5733333 C39.52,21.1111111 39.8088889,20.5333333 39.9244444,19.7822222 L37.2666667,19.7822222 L37.2666667,17.8755556 L42.0044444,17.8755556 L42.0044444,24 L42.0622222,24 Z" id="Shape"></path>
        </g>
    </g>
</svg>