<?xml version="1.0" encoding="utf-8"?>
<!-- Generator: Adobe Illustrator 22.1.0, SVG Export Plug-In . SVG Version: 6.00 Build 0)  -->
<svg version="1.1" xmlns="http://www.w3.org/2000/svg" xmlns:xlink="http://www.w3.org/1999/xlink" x="0px" y="0px"
	 viewBox="0 0 20 20" style="enable-background:new 0 0 20 20;" xml:space="preserve">
<style type="text/css">
	.st0{fill:#FFFFFF;}
</style>
<g id="Icons">
	<path class="st0" d="M18.093,0H1.907C0.858,0,0,0.858,0,1.907v16.186C0,19.142,0.858,20,1.907,20h16.186
		C19.142,20,20,19.142,20,18.093V1.907C20,0.858,19.142,0,18.093,0z M6.722,16.624c-1.857,0-3.368-1.513-3.368-3.373V7.457
		c0-0.512,0.415-0.928,0.927-0.928c0.512,0,0.926,0.415,0.926,0.928v5.794c0,0.836,0.68,1.517,1.515,1.517s1.514-0.68,1.514-1.517
		c0-0.583-0.34-1.121-0.866-1.371c-0.462-0.22-0.659-0.773-0.44-1.236c0.22-0.463,0.773-0.66,1.235-0.44
		c1.169,0.556,1.924,1.752,1.924,3.048C10.09,15.111,8.579,16.624,6.722,16.624z M12.675,14.179c-0.512,0-0.928-0.415-0.928-0.928
		c0-2.444-1.742-4.528-4.143-4.954C7.1,8.208,6.764,7.726,6.853,7.222C6.942,6.717,7.423,6.38,7.928,6.47
		c3.288,0.583,5.674,3.435,5.674,6.781C13.602,13.764,13.187,14.179,12.675,14.179z M16.218,14.179
		c-0.512,0-0.927-0.415-0.927-0.928c0-4.383-3.279-8.048-7.626-8.525C7.156,4.67,6.789,4.212,6.844,3.703
		C6.9,3.194,7.357,2.826,7.867,2.882c5.29,0.58,9.279,5.038,9.279,10.37C17.146,13.764,16.731,14.179,16.218,14.179z"/>
</g>
<g id="labels">
</g>
</svg>
