<?xml version="1.0" encoding="utf-8"?>
<!-- Generator: Adobe Illustrator 22.1.0, SVG Export Plug-In . SVG Version: 6.00 Build 0)  -->
<svg version="1.1" xmlns="http://www.w3.org/2000/svg" xmlns:xlink="http://www.w3.org/1999/xlink" x="0px" y="0px"
	 viewBox="0 0 20 20" style="enable-background:new 0 0 20 20;" xml:space="preserve">
<style type="text/css">
	.st0{fill:#FFFFFF;}
</style>
<g id="Icons">
	<g>
		<path class="st0" d="M15.802,5.63c-0.134-0.346-0.295-0.593-0.554-0.852c-0.259-0.259-0.506-0.42-0.852-0.554
			c-0.261-0.102-0.654-0.222-1.376-0.255c-0.781-0.036-1.016-0.043-2.995-0.043c-1.979,0-2.213,0.008-2.995,0.043
			C6.308,4.001,5.916,4.122,5.655,4.223C5.309,4.358,5.062,4.518,4.803,4.778C4.543,5.037,4.383,5.284,4.248,5.63
			C4.147,5.891,4.026,6.283,3.993,7.006C3.957,7.787,3.95,8.022,3.95,10c0,1.979,0.008,2.213,0.043,2.995
			c0.033,0.723,0.154,1.115,0.255,1.376c0.134,0.346,0.295,0.593,0.554,0.852c0.259,0.259,0.506,0.42,0.852,0.554
			C5.916,15.879,6.308,16,7.031,16.033c0.781,0.036,1.016,0.043,2.995,0.043c1.979,0,2.213-0.008,2.995-0.043
			c0.723-0.033,1.115-0.154,1.376-0.255c0.346-0.134,0.593-0.295,0.852-0.554c0.259-0.259,0.42-0.506,0.554-0.852
			c0.102-0.261,0.222-0.654,0.255-1.376c0.036-0.781,0.043-1.016,0.043-2.995c0-1.979-0.008-2.213-0.043-2.995
			C16.025,6.283,15.904,5.891,15.802,5.63z M10.025,13.806c-2.102,0-3.806-1.704-3.806-3.806c0-2.102,1.704-3.806,3.806-3.806
			c2.102,0,3.806,1.704,3.806,3.806C13.831,12.102,12.127,13.806,10.025,13.806z M13.981,6.934c-0.491,0-0.889-0.398-0.889-0.889
			c0-0.491,0.398-0.889,0.889-0.889c0.491,0,0.889,0.398,0.889,0.889C14.871,6.536,14.472,6.934,13.981,6.934z"/>
		<path class="st0" d="M10.025,7.53c-1.364,0-2.47,1.106-2.47,2.47c0,1.364,1.106,2.47,2.47,2.47c1.364,0,2.47-1.106,2.47-2.47
			C12.496,8.636,11.39,7.53,10.025,7.53z"/>
		<path class="st0" d="M18.093,0H1.907C0.858,0,0,0.858,0,1.907v16.186C0,19.142,0.858,20,1.907,20h16.186
			C19.142,20,20,19.142,20,18.093V1.907C20,0.858,19.142,0,18.093,0z M17.391,13.056c-0.036,0.789-0.161,1.328-0.344,1.799
			c-0.189,0.487-0.443,0.901-0.855,1.313c-0.412,0.412-0.825,0.665-1.313,0.855c-0.471,0.183-1.01,0.308-1.799,0.344
			c-0.79,0.036-1.043,0.045-3.056,0.045c-2.013,0-2.265-0.009-3.055-0.045c-0.789-0.036-1.328-0.161-1.799-0.344
			c-0.487-0.189-0.901-0.443-1.313-0.855c-0.412-0.412-0.665-0.825-0.855-1.313c-0.183-0.471-0.309-1.01-0.344-1.799
			C2.623,12.265,2.615,12.013,2.615,10c0-2.013,0.008-2.265,0.045-3.055C2.695,6.156,2.82,5.618,3.004,5.146
			c0.189-0.487,0.443-0.901,0.855-1.313C4.27,3.422,4.684,3.168,5.171,2.979C5.642,2.796,6.181,2.67,6.97,2.634
			C7.76,2.598,8.013,2.59,10.025,2.59c2.013,0,2.265,0.008,3.056,0.045c0.789,0.036,1.327,0.161,1.799,0.344
			c0.487,0.189,0.901,0.443,1.313,0.855c0.412,0.412,0.665,0.825,0.855,1.313c0.183,0.471,0.308,1.01,0.344,1.799
			c0.036,0.791,0.045,1.043,0.045,3.055C17.436,12.013,17.428,12.265,17.391,13.056z"/>
	</g>
</g>
<g id="labels">
</g>
</svg>
