<svg xmlns="http://www.w3.org/2000/svg" viewBox="0 0 20 20"><defs><style>.cls-1{fill:#fff;}</style></defs><title>Asset 28</title><g id="Layer_2" data-name="Layer 2"><g id="Layer_1-2" data-name="Layer 1"><path class="cls-1" d="M10,0A10,10,0,1,0,20,10,10,10,0,0,0,10,0Zm4.51,15.31h0l-.71.48-.24.15c-.53.38-3.26.75-6.44-4.1-3-4.61-1.69-6.8-1.2-7.22l.25-.17L6.87,4a.65.65,0,0,1,.91.18L9.07,6.07l.17.25a.65.65,0,0,1-.17.91h0l-.71.48-.24.17c-.47.31-.2.94.13,1.55a13.5,13.5,0,0,0,1.54,2.28c.77.93,1.18,1.35,1.63,1.06l.24-.17.71-.48a.64.64,0,0,1,.9.17l1.42,2.11h0A.65.65,0,0,1,14.51,15.31Z"/></g></g></svg>