<svg xmlns="http://www.w3.org/2000/svg" viewBox="0 0 90 90"><defs><style>.cls-1{fill:#fff;}</style></defs><title>Asset 1</title><g id="Layer_2" data-name="Layer 2"><g id="Icons"><path class="cls-1" d="M36.05,41.41c-12.49,1.23-22,8.85-21.14,17S26.49,72.27,39,71.05,60.92,62.18,60.1,54,48.52,40.17,36.05,41.41ZM47,60.71c-2.54,5.75-9.87,8.82-16.09,6.82-6-1.94-8.54-7.86-5.91-13.19s9.29-8.18,15.23-6.64C46.37,49.29,49.5,55.08,47,60.71Z"/><path class="cls-1" d="M39.06,54.35a1.78,1.78,0,0,0-2.11.8A1.26,1.26,0,0,0,37.5,57a1.83,1.83,0,0,0,2.17-.79A1.26,1.26,0,0,0,39.06,54.35Z"/><path class="cls-1" d="M34.29,56.32a4.74,4.74,0,0,0-5.62,1.9,3.3,3.3,0,0,0,1.28,5,4.73,4.73,0,0,0,5.73-1.88A3.32,3.32,0,0,0,34.29,56.32Z"/><path class="cls-1" d="M81.42,0H8.58A8.6,8.6,0,0,0,0,8.58V81.42A8.6,8.6,0,0,0,8.58,90H81.42A8.6,8.6,0,0,0,90,81.42V8.58A8.6,8.6,0,0,0,81.42,0ZM38.93,75.51c-15.64,0-31.63-7.57-31.63-20,0-6.51,4.12-14,11.24-21.15,9.5-9.49,20.57-13.8,24.74-9.63,1.84,1.83,2,5,.84,8.8-.63,1.91,1.79.84,1.79.85,7.67-3.21,14.36-3.4,16.82.1,1.3,1.86,1.18,4.47,0,7.49-.57,1.39.16,1.61,1.22,1.93,4.32,1.34,9.15,4.58,9.15,10.29C73.08,63.61,59.44,75.51,38.93,75.51ZM66.26,31.26a4.78,4.78,0,0,0-4.53-1.46,2.49,2.49,0,0,1-1-4.86A9.71,9.71,0,0,1,72,37.43a2.48,2.48,0,1,1-4.72-1.52A4.73,4.73,0,0,0,66.26,31.26Zm15.47,9.32a0,0,0,0,0,0,0,2.89,2.89,0,0,1-5.49-1.78A14.18,14.18,0,0,0,59.76,20.58a2.89,2.89,0,0,1-1.2-5.65A20,20,0,0,1,81.73,40.58Z"/></g></g></svg>