<?xml version="1.0" encoding="utf-8"?>
<!-- Generator: Adobe Illustrator 22.1.0, SVG Export Plug-In . SVG Version: 6.00 Build 0)  -->
<svg version="1.1" xmlns="http://www.w3.org/2000/svg" xmlns:xlink="http://www.w3.org/1999/xlink" x="0px" y="0px"
	 viewBox="0 0 20 20" style="enable-background:new 0 0 20 20;" xml:space="preserve">
<style type="text/css">
	.st0{fill:#FFFFFF;}
</style>
<g id="Icons">
	<path class="st0" d="M18.093,0H1.907C0.858,0,0,0.858,0,1.907v16.186C0,19.142,0.858,20,1.907,20h8.775v-7.754H8.075V9.229h2.607
		V7.005c0-2.581,1.578-3.987,3.884-3.987c1.104,0,2.053,0.082,2.33,0.119v2.698l-1.599,0.001c-1.254,0-1.497,0.595-1.497,1.468
		v1.926h2.99l-0.389,3.016H13.8V20h4.293C19.142,20,20,19.142,20,18.093V1.907C20,0.858,19.142,0,18.093,0z"/>
</g>
<g id="labels">
</g>
</svg>
