<?xml version="1.0" encoding="utf-8"?>
<!-- Generator: Adobe Illustrator 22.1.0, SVG Export Plug-In . SVG Version: 6.00 Build 0)  -->
<svg version="1.1" xmlns="http://www.w3.org/2000/svg" xmlns:xlink="http://www.w3.org/1999/xlink" x="0px" y="0px"
	 viewBox="0 0 20 20" style="enable-background:new 0 0 20 20;" xml:space="preserve">
<style type="text/css">
	.st0{fill:#FFFFFF;}
</style>
<g id="Icons">
	<g>
		<polygon class="st0" points="8.467,11.899 12.421,9.849 8.467,7.785 		"/>
		<path class="st0" d="M18.093,0H1.907C0.858,0,0,0.858,0,1.907v16.186C0,19.142,0.858,20,1.907,20h16.186
			C19.142,20,20,19.142,20,18.093V1.907C20,0.858,19.142,0,18.093,0z M17.32,10.553c0,1.185-0.145,2.369-0.145,2.369
			s-0.145,1.01-0.584,1.453c-0.556,0.583-1.181,0.585-1.466,0.62C13.076,15.144,10,15.148,10,15.148s-3.806-0.035-4.978-0.146
			c-0.326-0.062-1.058-0.044-1.614-0.627c-0.44-0.443-0.582-1.453-0.582-1.453S2.68,11.738,2.68,10.553V9.443
			c0-1.184,0.146-2.369,0.146-2.369s0.142-1.01,0.582-1.454c0.556-0.582,1.181-0.586,1.467-0.621
			c2.048-0.146,5.122-0.146,5.122-0.146h0.007c0,0,3.072,0,5.121,0.146c0.285,0.035,0.91,0.04,1.466,0.621
			c0.439,0.444,0.584,1.454,0.584,1.454s0.145,1.185,0.145,2.369V10.553z"/>
	</g>
</g>
<g id="labels">
</g>
</svg>
