<?xml version="1.0" encoding="utf-8"?>
<!-- Generator: Adobe Illustrator 22.1.0, SVG Export Plug-In . SVG Version: 6.00 Build 0)  -->
<svg version="1.1" id="Layer_1" xmlns="http://www.w3.org/2000/svg" xmlns:xlink="http://www.w3.org/1999/xlink" x="0px" y="0px"
	 viewBox="0 0 20 20" style="enable-background:new 0 0 20 20;" xml:space="preserve">
<style type="text/css">
	.st0{fill:#FFFFFF;}
	.st1{fill:none;}
</style>
<g>
	<g>
		<path class="st0" d="M10.884,13.516c0.078-0.33,0.164-0.868,0.257-1.614c-0.094,0.043-0.187,0.1-0.281,0.172
			c0,0.158-0.008,0.402-0.023,0.731c0,0.33-0.008,0.575-0.023,0.731c0.016,0,0.031-0.007,0.046-0.021H10.884z"/>
		<path class="st0" d="M11.888,10.956c0.015-0.115,0.031-0.208,0.046-0.279c-0.062,0.029-0.14,0.043-0.233,0.043
			c0,0.072-0.016,0.193-0.047,0.366c-0.016,0.114-0.023,0.201-0.023,0.258c0.062,0,0.124-0.007,0.186-0.021
			C11.833,11.25,11.857,11.128,11.888,10.956z"/>
		<path class="st0" d="M14.339,12.828c-0.078,0.014-0.21,0.094-0.397,0.237c0.015,0.129,0.03,0.337,0.047,0.624
			c0.015,0.202,0.023,0.345,0.023,0.431c0.047,0,0.117-0.007,0.21-0.021c0.109,0,0.187-0.007,0.233-0.022
			c0.094-0.316,0.14-0.652,0.14-1.011c0-0.129-0.015-0.207-0.047-0.237C14.517,12.785,14.447,12.785,14.339,12.828z"/>
		<path class="st0" d="M10.815,14.205c0.529-0.072,1.058-0.122,1.587-0.151c0.031-0.115,0.047-0.23,0.047-0.345
			c-0.669,0.058-1.214,0.137-1.634,0.237V14.205z"/>
		<path class="st0" d="M11.655,12.57c0.016-0.1,0.039-0.272,0.07-0.516c0.015-0.172,0.031-0.301,0.046-0.387
			c-0.016,0-0.031,0.007-0.046,0.021c-0.031,0.014-0.078,0.021-0.14,0.021c-0.031,0.215-0.078,0.553-0.14,1.011
			c-0.047,0.344-0.078,0.602-0.093,0.775c0.187-0.015,0.443-0.028,0.77-0.043c0.171-0.014,0.296-0.021,0.373-0.021
			c0.016-0.086,0.024-0.179,0.024-0.279c-0.077,0.057-0.233,0.107-0.467,0.15C11.756,13.344,11.623,13.101,11.655,12.57z"/>
		<path class="st0" d="M12.261,11.58c0,0.028-0.008,0.072-0.024,0.129c-0.031,0.258-0.054,0.524-0.07,0.797
			c-0.046,0.33,0.016,0.466,0.187,0.409c0.062-0.029,0.125-0.043,0.187-0.043c0.031-0.301,0.023-0.603-0.023-0.904
			C12.502,11.694,12.417,11.566,12.261,11.58z"/>
	</g>
	<g>
		<path class="st1" d="M8.555,10.397c-0.14,0.072-0.171,0.179-0.093,0.323c0.14,0.244,0.241,0.395,0.303,0.452
			c0.265-0.072,0.506-0.115,0.724-0.129c-0.031-0.029-0.093-0.122-0.187-0.28c-0.063-0.114-0.109-0.186-0.14-0.215
			C8.992,10.332,8.789,10.282,8.555,10.397z"/>
		<path class="st1" d="M6.9,8.695c0.674,0,1.156-0.259,1.444-0.66c0.142,0.297,0.471,0.6,1.196,0.771
			c0.884,0.209,1.62-0.107,1.86-0.89L11.7,6.732v1.982h0.368c0.069,0.026,0.149,0.04,0.245,0.04
			c0.329,0.001,0.493-0.149,0.506-0.422l0.001-0.909c0,0,1.314,1.111,1.385,1.172c0.212,0.173,0.558,0.155,0.731-0.011
			c0.183-0.175,0.14-0.535-0.08-0.722l-0.952-0.807l0.853-0.743c0,0,0.422-0.401,0.052-0.753c-0.271-0.259-0.617-0.111-0.742,0.004
			l-1.245,1.176l-0.007-0.852c-0.008-0.287-0.17-0.469-0.504-0.469c-0.344,0-0.485,0.172-0.503,0.469V6.13
			c-0.023-0.186-0.144-0.308-0.365-0.368c-0.297-0.054-0.489,0.08-0.588,0.392l-0.39,1.558c-0.099,0.328-0.378,0.5-0.751,0.416
			C9.16,8.004,9.184,7.594,9.219,7.454l0.392-1.563C9.677,5.576,9.573,5.383,9.293,5.3C8.984,5.246,8.78,5.381,8.681,5.692
			L8.528,6.3C8.263,5.675,7.634,5.235,6.9,5.235c-0.505,0-0.958,0.209-1.28,0.542c0.002-0.156-0.06-0.343-0.331-0.439
			C4.79,5.163,4.62,5.425,4.515,5.672L3.671,7.675l-0.806-2.01C2.733,5.394,2.511,5.204,2.098,5.342
			c-0.449,0.15-0.302,0.61-0.277,0.696l1.264,2.893l-0.496,1.084c-0.066,0.145-0.185,0.549,0.258,0.722
			c0.443,0.173,0.646-0.081,0.791-0.377l1.501-3.367C5.152,7.936,5.825,8.695,6.9,8.695z M6.9,6.12c0.41,0,0.743,0.39,0.743,0.871
			c0,0.482-0.333,0.872-0.743,0.872c-0.41,0-0.743-0.39-0.743-0.872C6.157,6.51,6.49,6.12,6.9,6.12z"/>
		<path class="st1" d="M9.139,14.27c-0.482,0.072-0.716-0.165-0.7-0.71c0-0.588,0.046-1.119,0.14-1.593
			c-0.016-0.143-0.086-0.236-0.21-0.279c0.498-0.072,1.035-0.136,1.61-0.194l-0.093-0.171c-0.312-0.015-0.98,0.021-2.007,0.107
			c0.015-0.043,0.031-0.115,0.047-0.215c0.109-0.344,0.179-0.602,0.21-0.774c0.015-0.158-0.078-0.266-0.28-0.324
			c-0.234-0.043-0.373,0.043-0.42,0.259c-0.031,0.1-0.07,0.251-0.116,0.452c-0.093,0.315-0.163,0.552-0.21,0.71
			c-0.312,0.058-0.522,0.1-0.63,0.129c-0.234,0.086-0.312,0.215-0.234,0.387c0.109,0.172,0.273,0.208,0.49,0.107
			c0.031-0.014,0.07-0.036,0.117-0.064c0.062-0.014,0.101-0.029,0.116-0.043c-0.296,0.989-0.607,1.75-0.934,2.28
			c0.062-0.903,0.093-1.685,0.093-2.345c0.046-0.158-0.07-0.273-0.35-0.344c0.202-0.316,0.396-0.646,0.583-0.99
			c0.125-0.215,0.077-0.366-0.14-0.452c-0.233-0.086-0.42,0-0.56,0.258c-0.311,0.632-0.708,1.32-1.19,2.066
			c0.156-0.043,0.428-0.065,0.817-0.065c0.016-0.014,0.039-0.05,0.07-0.107c0.016-0.029,0.031-0.05,0.047-0.065
			c-0.016,0.703-0.047,1.463-0.094,2.281c0.311-0.029,0.552-0.044,0.723-0.044c0-0.043,0-0.078,0-0.107
			c0.248-0.043,0.513-0.057,0.794-0.043c0.342-0.803,0.654-1.657,0.933-2.56l0.094-0.021c-0.047,0.057-0.071,0.157-0.071,0.301
			c-0.046,0.731-0.069,1.24-0.069,1.528c0,0.875,0.412,1.219,1.237,1.032c0.326-0.072,0.739-0.266,1.237-0.581l-0.117-0.15
			C9.777,14.069,9.466,14.184,9.139,14.27z"/>
		<path class="st1" d="M14.689,11.817c0-0.029,0.007-0.086,0.023-0.172c0.031-0.172,0.055-0.308,0.07-0.409
			c0.218-0.028,0.428-0.05,0.631-0.064l-0.07-0.194c-0.171,0.014-0.35,0.021-0.537,0.021c0.015-0.071,0.023-0.171,0.023-0.301
			c0.017-0.129,0.024-0.222,0.024-0.28c0-0.258-0.117-0.387-0.35-0.387c-0.203,0-0.303,0.122-0.303,0.366
			c-0.016,0.23-0.039,0.445-0.07,0.645c-0.048,0-0.11,0.007-0.187,0.022c-0.062,0-0.109,0-0.14,0
			c0.016-0.029,0.031-0.079,0.046-0.151c0.047-0.158,0.086-0.279,0.117-0.366c0.063-0.215-0.008-0.337-0.21-0.365
			c-0.233-0.014-0.389,0.108-0.467,0.365c-0.093,0.215-0.171,0.452-0.233,0.71c-0.015,0.014-0.024,0.044-0.024,0.087
			c-0.015,0.215,0.125,0.272,0.42,0.172c0.046-0.015,0.109-0.029,0.187-0.043c0.186-0.058,0.342-0.094,0.467-0.108
			c-0.016,0.143-0.039,0.316-0.07,0.517c-0.202,0.015-0.396,0.036-0.583,0.064c-0.109,0.029-0.202,0.065-0.28,0.108
			c-0.063-0.487-0.342-0.739-0.84-0.753c0.016-0.129,0.054-0.316,0.117-0.56c0.015-0.072,0.031-0.122,0.046-0.151
			c0.063-0.014,0.164-0.021,0.303-0.021c0.14-0.014,0.241-0.022,0.303-0.022l-0.046-0.215c-0.825-0.086-1.649-0.036-2.474,0.151
			c-0.405,0.115-0.576,0.251-0.513,0.409c0.062,0.201,0.234,0.258,0.513,0.173c0.047-0.015,0.116-0.036,0.21-0.065
			c0.233-0.086,0.404-0.143,0.513-0.171c-0.047,0.215-0.078,0.416-0.094,0.602c-0.124,0.043-0.249,0.079-0.373,0.108
			c-0.031-0.072-0.101-0.108-0.21-0.108c-0.218-0.014-0.319,0.129-0.303,0.431c-0.046,0.903-0.078,1.872-0.093,2.905
			c0.793-0.287,1.494-0.438,2.101-0.452c0,0.087-0.008,0.151-0.024,0.193c-0.016,0.015-0.023,0.029-0.023,0.043
			c0.202-0.072,0.428-0.086,0.677-0.043c0.078-0.401,0.147-1.025,0.21-1.871c0-0.072,0.008-0.136,0.024-0.194
			c0.046,0.043,0.109,0.051,0.187,0.022c0.513-0.201,1.229-0.352,2.147-0.452l-0.047-0.172C15.264,11.824,15,11.817,14.689,11.817z"
			/>
		<path class="st1" d="M15.085,14.054c0.078-0.301,0.133-0.631,0.164-0.99c-0.031-0.373-0.28-0.566-0.747-0.581
			c-0.233,0.014-0.451,0.058-0.654,0.129c-0.077-0.043-0.163-0.065-0.256-0.065c-0.171-0.014-0.257,0.108-0.257,0.366
			c0,0.072,0.007,0.186,0.023,0.344c0.016,0.746,0.039,1.226,0.07,1.442c0.14-0.086,0.342-0.122,0.607-0.107
			c0-0.029,0-0.072,0-0.129c0.218-0.072,0.537-0.129,0.957-0.172c0.14-0.014,0.248-0.028,0.327-0.043l-0.07-0.193
			C15.202,14.054,15.148,14.054,15.085,14.054z"/>
		<path class="st0" d="M6.9,7.863c0.41,0,0.743-0.39,0.743-0.872C7.644,6.51,7.311,6.12,6.9,6.12c-0.41,0-0.743,0.39-0.743,0.871
			C6.157,7.473,6.49,7.863,6.9,7.863z"/>
		<path class="st0" d="M18.093,0H1.907C0.858,0,0,0.858,0,1.907v16.186C0,19.142,0.858,20,1.907,20h16.186
			C19.142,20,20,19.142,20,18.093V1.907C20,0.858,19.142,0,18.093,0z M2.846,10.738c-0.443-0.173-0.324-0.577-0.258-0.722
			l0.496-1.084L1.821,6.038C1.795,5.952,1.649,5.492,2.098,5.342c0.414-0.139,0.635,0.051,0.767,0.323l0.806,2.01l0.845-2.003
			C4.62,5.425,4.79,5.163,5.289,5.339C5.56,5.434,5.622,5.621,5.62,5.777C5.942,5.444,6.396,5.235,6.9,5.235
			c0.734,0,1.362,0.439,1.628,1.065l0.153-0.608C8.78,5.381,8.984,5.246,9.293,5.3c0.28,0.083,0.384,0.276,0.318,0.591L9.219,7.454
			C9.184,7.594,9.16,8.004,9.713,8.128c0.373,0.083,0.652-0.089,0.751-0.416l0.39-1.558c0.099-0.312,0.291-0.446,0.588-0.392
			c0.222,0.061,0.342,0.182,0.365,0.368V5.886c0.018-0.296,0.159-0.469,0.503-0.469c0.334,0,0.496,0.183,0.504,0.469l0.007,0.852
			l1.245-1.176c0.125-0.115,0.471-0.263,0.742-0.004c0.37,0.352-0.052,0.753-0.052,0.753l-0.853,0.743l0.952,0.807
			c0.22,0.186,0.263,0.546,0.08,0.722c-0.173,0.166-0.52,0.184-0.731,0.011c-0.071-0.061-1.385-1.172-1.385-1.172l-0.001,0.909
			c-0.013,0.273-0.177,0.423-0.506,0.422c-0.095,0-0.176-0.014-0.245-0.04H11.7V6.732l-0.299,1.184
			c-0.24,0.783-0.976,1.099-1.86,0.89C8.816,8.635,8.487,8.332,8.345,8.035c-0.288,0.401-0.77,0.66-1.444,0.66
			c-1.075,0-1.749-0.759-1.763-1.701l-1.501,3.367C3.492,10.657,3.289,10.911,2.846,10.738z M9.489,11.042
			C9.271,11.057,9.03,11.1,8.766,11.171c-0.062-0.057-0.163-0.208-0.303-0.452c-0.078-0.144-0.047-0.251,0.093-0.323
			c0.233-0.115,0.436-0.065,0.607,0.15c0.031,0.029,0.077,0.101,0.14,0.215C9.396,10.92,9.458,11.013,9.489,11.042z M8.953,14.657
			c-0.825,0.187-1.237-0.158-1.237-1.032c0-0.288,0.023-0.797,0.069-1.528c0-0.144,0.024-0.244,0.071-0.301l-0.094,0.021
			c-0.28,0.903-0.591,1.757-0.933,2.56c-0.28-0.015-0.545,0-0.794,0.043c0,0.029,0,0.065,0,0.107c-0.171,0-0.412,0.015-0.723,0.044
			c0.046-0.818,0.078-1.578,0.094-2.281c-0.016,0.014-0.031,0.036-0.047,0.065c-0.031,0.057-0.054,0.093-0.07,0.107
			c-0.389,0-0.661,0.021-0.817,0.065c0.482-0.746,0.879-1.435,1.19-2.066c0.14-0.258,0.327-0.344,0.56-0.258
			c0.218,0.087,0.265,0.237,0.14,0.452c-0.187,0.344-0.381,0.674-0.583,0.99c0.28,0.071,0.396,0.187,0.35,0.344
			c0,0.66-0.031,1.442-0.093,2.345c0.327-0.53,0.638-1.291,0.934-2.28c-0.016,0.014-0.054,0.029-0.116,0.043
			c-0.047,0.028-0.086,0.05-0.117,0.064c-0.217,0.101-0.381,0.065-0.49-0.107c-0.078-0.172,0-0.301,0.234-0.387
			c0.108-0.029,0.318-0.072,0.63-0.129c0.046-0.158,0.116-0.394,0.21-0.71c0.047-0.201,0.086-0.352,0.116-0.452
			c0.047-0.215,0.187-0.301,0.42-0.259c0.202,0.058,0.295,0.165,0.28,0.324c-0.031,0.172-0.101,0.43-0.21,0.774
			c-0.015,0.101-0.031,0.172-0.047,0.215c1.027-0.086,1.696-0.122,2.007-0.107l0.093,0.171c-0.575,0.058-1.112,0.122-1.61,0.194
			c0.124,0.043,0.195,0.136,0.21,0.279c-0.094,0.473-0.14,1.004-0.14,1.593c-0.016,0.545,0.218,0.782,0.7,0.71
			c0.327-0.086,0.637-0.201,0.933-0.345l0.117,0.15C9.691,14.391,9.279,14.585,8.953,14.657z M14.992,14.291
			c-0.42,0.043-0.739,0.1-0.957,0.172c0,0.057,0,0.101,0,0.129c-0.265-0.015-0.467,0.021-0.607,0.107
			c-0.031-0.215-0.054-0.696-0.07-1.442c-0.016-0.158-0.023-0.272-0.023-0.344c0-0.259,0.086-0.38,0.257-0.366
			c0.093,0,0.178,0.021,0.256,0.065c0.203-0.072,0.421-0.115,0.654-0.129c0.466,0.014,0.716,0.208,0.747,0.581
			c-0.031,0.359-0.086,0.689-0.164,0.99c0.063,0,0.117,0,0.164,0l0.07,0.193C15.24,14.263,15.132,14.277,14.992,14.291z
			 M13.382,12.462c-0.078,0.029-0.14,0.021-0.187-0.022c-0.016,0.058-0.024,0.122-0.024,0.194c-0.063,0.846-0.132,1.47-0.21,1.871
			c-0.249-0.043-0.474-0.028-0.677,0.043c0-0.014,0.007-0.029,0.023-0.043c0.016-0.043,0.024-0.107,0.024-0.193
			c-0.607,0.014-1.307,0.165-2.101,0.452c0.015-1.033,0.047-2.001,0.093-2.905c-0.016-0.302,0.086-0.445,0.303-0.431
			c0.109,0,0.179,0.036,0.21,0.108c0.124-0.029,0.249-0.064,0.373-0.108c0.016-0.186,0.046-0.387,0.094-0.602
			c-0.109,0.028-0.28,0.085-0.513,0.171c-0.094,0.029-0.164,0.05-0.21,0.065c-0.28,0.085-0.451,0.028-0.513-0.173
			c-0.062-0.158,0.109-0.294,0.513-0.409c0.825-0.186,1.649-0.237,2.474-0.151l0.046,0.215c-0.062,0-0.163,0.008-0.303,0.022
			c-0.139,0-0.241,0.007-0.303,0.021c-0.015,0.029-0.031,0.079-0.046,0.151c-0.062,0.244-0.101,0.431-0.117,0.56
			c0.498,0.014,0.777,0.265,0.84,0.753c0.078-0.043,0.171-0.079,0.28-0.108c0.187-0.028,0.381-0.049,0.583-0.064
			c0.031-0.201,0.055-0.373,0.07-0.517c-0.125,0.014-0.28,0.05-0.467,0.108c-0.078,0.014-0.141,0.028-0.187,0.043
			c-0.296,0.1-0.436,0.043-0.42-0.172c0-0.043,0.008-0.072,0.024-0.087c0.063-0.258,0.14-0.495,0.233-0.71
			c0.078-0.257,0.234-0.379,0.467-0.365c0.202,0.029,0.272,0.151,0.21,0.365c-0.031,0.087-0.069,0.209-0.117,0.366
			c-0.015,0.072-0.03,0.122-0.046,0.151c0.031,0,0.078,0,0.14,0c0.077-0.015,0.139-0.022,0.187-0.022
			c0.031-0.201,0.054-0.416,0.07-0.645c0-0.244,0.101-0.366,0.303-0.366c0.233,0,0.35,0.129,0.35,0.387
			c0,0.058-0.008,0.15-0.024,0.28c0,0.129-0.007,0.23-0.023,0.301c0.187,0,0.366-0.007,0.537-0.021l0.07,0.194
			c-0.203,0.014-0.413,0.036-0.631,0.064c-0.015,0.101-0.039,0.237-0.07,0.409c-0.015,0.086-0.023,0.143-0.023,0.172
			c0.311,0,0.575,0.007,0.793,0.021l0.047,0.172C14.611,12.111,13.895,12.261,13.382,12.462z M18.222,7.503
			c-0.045,0.809-0.564,1.232-1.597,1.248c-1.028-0.016-1.556-0.44-1.591-1.246V5.902c0.017-0.323,0.167-0.51,0.495-0.51
			c0.296,0.011,0.445,0.186,0.462,0.508l0.003,1.603c0.018,0.339,0.267,0.559,0.633,0.559c0.349,0,0.615-0.22,0.633-0.559V5.901
			c0.012-0.323,0.176-0.497,0.478-0.508c0.302,0.011,0.467,0.185,0.484,0.508V7.503z"/>
	</g>
</g>
</svg>
