<svg xmlns="http://www.w3.org/2000/svg" viewBox="0 0 20 20"><defs><style>.cls-1{fill:#fff;}</style></defs><title>Asset 27</title><g id="Layer_2" data-name="Layer 2"><g id="Layer_1-2" data-name="Layer 1"><path class="cls-1" d="M10,8.65a2.08,2.08,0,0,0-.59.48,2.29,2.29,0,0,0-.4.7,2.32,2.32,0,0,0-.15.84,1,1,0,0,0,.16.64.57.57,0,0,0,.47.21.89.89,0,0,0,.32,0,.79.79,0,0,0,.29-.17.92.92,0,0,0,.25-.32,1.73,1.73,0,0,0,.19-.49l.52-2a2.17,2.17,0,0,0-.36,0A1.45,1.45,0,0,0,10,8.65Z"/><path class="cls-1" d="M10,0A10,10,0,1,0,20,10,10,10,0,0,0,10,0Zm5.44,10.58a3.67,3.67,0,0,1-.66,1.2,3.11,3.11,0,0,1-1,.82,2.77,2.77,0,0,1-1.28.3,2.14,2.14,0,0,1-.45-.05,1.5,1.5,0,0,1-.42-.15,1.31,1.31,0,0,1-.35-.28A1.23,1.23,0,0,1,11,12a2.81,2.81,0,0,1-.91.69,2.7,2.7,0,0,1-1,.2,2,2,0,0,1-.83-.16,1.72,1.72,0,0,1-.6-.46,2,2,0,0,1-.36-.69,3.07,3.07,0,0,1-.12-.88,3.58,3.58,0,0,1,.1-.85A3.65,3.65,0,0,1,7.58,9a3.24,3.24,0,0,1,.54-.75,3.32,3.32,0,0,1,.76-.62,4.11,4.11,0,0,1,1-.41,4.79,4.79,0,0,1,1.24-.15,5.24,5.24,0,0,1,.58,0l.49.07.43.11.42.16-.72,2.77a3.23,3.23,0,0,0-.1.65.94.94,0,0,0,.07.41.38.38,0,0,0,.2.21.81.81,0,0,0,.33.06.78.78,0,0,0,.49-.18,1.67,1.67,0,0,0,.4-.52,3.65,3.65,0,0,0,.27-.77,5,5,0,0,0,.09-1,4.34,4.34,0,0,0-.27-1.59A3.15,3.15,0,0,0,13,6.35a3.31,3.31,0,0,0-1.21-.71,4.82,4.82,0,0,0-1.56-.24,4.16,4.16,0,0,0-1.74.35,4.1,4.1,0,0,0-1.36,1,4.61,4.61,0,0,0-.89,1.42A4.85,4.85,0,0,0,6,9.88a5.4,5.4,0,0,0,.35,2,4.08,4.08,0,0,0,1,1.48,4,4,0,0,0,1.49.89,5.58,5.58,0,0,0,1.86.3,7,7,0,0,0,1.06-.07,6.62,6.62,0,0,0,.88-.16,4.84,4.84,0,0,0,.7-.22,4.46,4.46,0,0,0,.53-.25.53.53,0,0,1,.41-.07.41.41,0,0,1,.25.25l.31.79a7.76,7.76,0,0,1-.81.45,6.81,6.81,0,0,1-1,.36,8.3,8.3,0,0,1-1.11.24,9.89,9.89,0,0,1-1.26.08,7.11,7.11,0,0,1-2.53-.43,5.73,5.73,0,0,1-2-1.22,5.44,5.44,0,0,1-1.32-1.93,6.46,6.46,0,0,1-.47-2.54A5.64,5.64,0,0,1,5.11,7,6.54,6.54,0,0,1,6,5.78a6.31,6.31,0,0,1,1.19-.94,5.9,5.9,0,0,1,1.43-.62A5.71,5.71,0,0,1,10.26,4a5.79,5.79,0,0,1,1.38.16,5.6,5.6,0,0,1,1.28.47A5.16,5.16,0,0,1,14,5.38a5.28,5.28,0,0,1,.88,1,5.26,5.26,0,0,1,.57,1.25,5.36,5.36,0,0,1,.2,1.46A4.46,4.46,0,0,1,15.44,10.58Z"/></g></g></svg>