<?xml version="1.0" encoding="utf-8"?>
<!-- Generator: Adobe Illustrator 24.2.3, SVG Export Plug-In . SVG Version: 6.00 Build 0)  -->
<svg version="1.1" xmlns="http://www.w3.org/2000/svg" xmlns:xlink="http://www.w3.org/1999/xlink" x="0px" y="0px"
	 viewBox="0 0 205.14 37.2" style="enable-background:new 0 0 205.14 37.2;" xml:space="preserve">
<style type="text/css">
	.st0{fill-rule:evenodd;clip-rule:evenodd;fill:#FFFFFF;}
	.st1{fill:#FCD80B;}
	.st2{fill:#FFFFFF;}
	.st3{fill:#575DAA;}
	.st4{fill-rule:evenodd;clip-rule:evenodd;fill:#FCD80B;}
</style>
<g id="Guides">
</g>
<g id="Crop_Marks">
	<g>
		<g>
			<path class="st0" d="M47.15,3.35c-2.16,0.21-4.46,1.04-6.31,2.27c-2.93,1.96-4.93,5.01-5.57,8.49c-0.24,1.29-0.23,3.69,0.01,4.95
				c1.22,6.4,6.7,10.79,13.49,10.79c3.67,0,6.8-1.2,9.4-3.6c0.7-0.65,0.97-1.06,0.97-1.49c0-0.54-0.21-0.83-1.24-1.69
				c-1.13-0.94-1.27-1.03-1.76-1.03c-0.44,0-0.75,0.16-1.39,0.74c-0.9,0.81-2.14,1.52-3.23,1.85c-4.9,1.51-9.83-1.3-10.8-6.17
				c-0.44-2.15-0.15-4.31,0.81-6.09c1.03-1.93,2.81-3.36,4.92-3.96c2.9-0.82,5.98-0.12,8.28,1.91c0.6,0.53,0.96,0.71,1.44,0.71
				c0.21,0,0.49-0.05,0.61-0.11c0.36-0.19,2.01-1.66,2.19-1.95c0.21-0.34,0.22-0.81,0.03-1.18C58.91,7.65,58.61,7.29,58.3,7
				C55.43,4.21,51.51,2.93,47.15,3.35z"/>
			<path class="st0" d="M70.83,9.19c-0.87,0.08-2.13,0.38-2.97,0.7c-2.42,0.9-4.41,2.67-5.57,4.97c-0.36,0.7-0.76,1.91-0.91,2.78
				c-0.18,0.97-0.18,2.83-0.01,3.78c0.69,3.67,3.01,6.45,6.55,7.78c0.81,0.31,1.73,0.52,2.82,0.64c1.78,0.19,3.46,0.01,5.12-0.55
				c3.58-1.21,5.98-3.95,6.75-7.72c0.23-1.11,0.22-2.98-0.01-4.07c-0.9-4.34-3.95-7.3-8.37-8.14C73.33,9.18,71.73,9.1,70.83,9.19z
				 M73.42,13.86c1.9,0.46,3.4,1.95,3.95,3.92c0.14,0.53,0.17,0.8,0.17,1.78c0,1.33-0.13,1.92-0.65,2.92
				c-0.36,0.7-1.32,1.7-1.98,2.09c-1.68,0.98-4.04,0.99-5.75,0.01c-0.57-0.33-1.44-1.16-1.81-1.75c-0.87-1.39-1.13-3.27-0.69-5.02
				c0.06-0.24,0.26-0.76,0.45-1.15c0.29-0.59,0.44-0.8,1.01-1.37c0.76-0.76,1.49-1.18,2.49-1.44
				C71.38,13.67,72.59,13.66,73.42,13.86z"/>
			<path class="st0" d="M96.54,9.2c-1.75,0.21-3.1,0.87-4.41,2.15c-0.44,0.44-0.81,0.8-0.84,0.8c-0.01,0-0.03-0.34-0.03-0.76
				c0-0.41-0.04-0.87-0.07-1.01c-0.08-0.3-0.45-0.7-0.76-0.81c-0.12-0.04-0.75-0.08-1.41-0.08c-1.12,0-1.23,0.01-1.53,0.17
				c-0.24,0.13-0.37,0.27-0.51,0.53l-0.19,0.36v8.86v8.85l0.16,0.35c0.1,0.23,0.27,0.41,0.47,0.56l0.31,0.21l1.55,0.02
				c2,0.03,2.27-0.05,2.62-0.84c0.13-0.27,0.13-0.72,0.17-6.03l0.04-5.74l0.21-0.52c0.49-1.23,1.24-1.95,2.45-2.39
				c0.45-0.16,0.66-0.19,1.45-0.19c0.82-0.01,0.98,0.01,1.46,0.19c1.2,0.44,1.92,1.24,2.32,2.58c0.17,0.56,0.17,0.59,0.21,6.29
				l0.04,5.74l0.17,0.27c0.09,0.15,0.29,0.35,0.44,0.44c0.26,0.16,0.36,0.17,1.82,0.19c1.3,0.02,1.6,0.01,1.87-0.1
				c0.39-0.15,0.75-0.54,0.8-0.87c0.02-0.13,0.05-2.71,0.07-5.72c0.03-5.23,0.04-5.5,0.18-6c0.36-1.24,1.06-2.13,2.05-2.6
				c2.12-1.01,4.51-0.34,5.44,1.51c0.49,0.96,0.47,0.81,0.52,7.09c0.05,6.43,0.01,6.06,0.62,6.46c0.3,0.2,0.31,0.2,1.85,0.22
				c1.72,0.03,2-0.02,2.36-0.41c0.45-0.48,0.44-0.3,0.41-6.75c-0.02-5.15-0.04-5.97-0.16-6.52c-0.77-3.89-3.31-6.19-7.19-6.52
				c-2.64-0.22-5.09,0.64-6.83,2.42l-0.67,0.7l-0.38-0.47c-1.19-1.51-2.95-2.41-5.12-2.64C97.73,9.11,97.3,9.11,96.54,9.2z"/>
			<path class="st0" d="M133.99,9.19c-1.95,0.24-3.66,0.98-5.19,2.24c-0.19,0.16-0.36,0.28-0.39,0.28c-0.02,0-0.05-0.29-0.07-0.65
				c-0.03-0.74-0.13-0.98-0.53-1.3l-0.29-0.23h-1.38h-1.39l-0.27,0.21c-0.15,0.11-0.33,0.31-0.41,0.44c-0.12,0.22-0.13,1-0.15,12.85
				c-0.01,8.35,0.01,12.71,0.06,12.89c0.1,0.38,0.34,0.66,0.7,0.82c0.27,0.12,0.5,0.14,1.82,0.14c0.84,0,1.64-0.04,1.78-0.07
				c0.3-0.08,0.6-0.37,0.75-0.7c0.07-0.17,0.1-1.14,0.13-4.17l0.04-3.95l0.52,0.35c1.01,0.67,2.3,1.18,3.55,1.41
				c0.9,0.16,2.67,0.16,3.56,0c1.98-0.36,3.69-1.25,5.11-2.67c0.98-0.98,1.56-1.84,2.11-3.1c1.07-2.47,1.2-5.34,0.36-7.99
				c-0.94-2.94-3.21-5.31-6.03-6.29C137.09,9.25,135.25,9.05,133.99,9.19z M135.67,13.87c0.93,0.24,1.67,0.67,2.36,1.36
				c1.17,1.18,1.67,2.48,1.67,4.32c0,1.72-0.52,3.09-1.58,4.21c-1.24,1.32-3.41,1.88-5.35,1.39c-1.66-0.42-3-1.7-3.58-3.41
				c-0.38-1.14-0.41-3.1-0.05-4.24c0.58-1.9,1.85-3.15,3.71-3.64C133.6,13.66,134.9,13.67,135.67,13.87z"/>
			<path class="st0" d="M156.02,9.19c-1.29,0.11-2.51,0.39-3.74,0.87c-1.09,0.42-2.5,1.24-2.85,1.64c-0.24,0.28-0.34,0.72-0.25,1.13
				c0.09,0.41,0.68,1.47,0.96,1.74c0.47,0.45,1.04,0.46,1.76,0.01c1.16-0.71,2.27-1.13,3.64-1.35c2.3-0.36,4.33,0.31,5.16,1.72
				c0.33,0.57,0.47,1.16,0.47,2.07c0,0.46-0.01,0.84-0.04,0.84s-0.43-0.13-0.91-0.29c-1.75-0.58-3.38-0.8-5.1-0.67
				c-3.83,0.28-6.43,2.07-7.29,5c-0.15,0.5-0.17,0.76-0.17,1.7c0.01,1.04,0.02,1.16,0.24,1.81c0.29,0.88,0.66,1.5,1.27,2.16
				c1.33,1.44,3.14,2.18,5.71,2.32c2.24,0.13,4.59-0.68,6.48-2.26l0.44-0.37l0.05,0.47c0.07,0.76,0.13,0.92,0.41,1.21
				c0.36,0.37,0.66,0.45,1.78,0.45c1.21,0,1.56-0.14,1.87-0.76c0.14-0.27,0.15-0.47,0.12-6.59c-0.02-6.26-0.02-6.32-0.19-6.94
				c-0.75-2.81-2.18-4.41-4.85-5.38C159.78,9.3,157.65,9.06,156.02,9.19z M158.61,20.41c0.7,0.16,1.58,0.44,2.19,0.72l0.51,0.23
				v0.82c0,1.33-0.27,2.04-1.08,2.79c-1.01,0.93-2.45,1.39-4.12,1.3c-1.18-0.06-1.93-0.33-2.61-0.96c-0.56-0.51-0.8-1.02-0.84-1.8
				c-0.05-0.98,0.25-1.69,1.02-2.38c0.3-0.27,1.18-0.67,1.74-0.8C156.07,20.2,157.85,20.24,158.61,20.41z"/>
			<path class="st0" d="M177.05,9.2c-1.86,0.16-3.55,0.82-4.64,1.82c-1.16,1.07-1.71,2.36-1.72,3.98c0,1.85,0.76,3.19,2.45,4.31
				c0.86,0.57,1.81,0.99,3.64,1.64c3.01,1.06,3.95,1.78,3.95,2.98c0,0.94-0.55,1.5-1.81,1.82c-0.61,0.16-1.71,0.11-2.59-0.11
				c-0.78-0.2-2.1-0.84-2.74-1.34c-1.26-0.97-1.59-1.1-2.18-0.81c-0.36,0.17-1.25,1.07-1.61,1.62c-0.43,0.67-0.24,1.27,0.66,2.09
				c1.55,1.42,3.69,2.33,6.12,2.62c1.2,0.14,1.68,0.14,2.87,0c2.07-0.24,3.66-0.94,4.79-2.1c0.57-0.58,0.9-1.13,1.21-1.95
				c0.21-0.58,0.22-0.65,0.23-1.87c0-1.14-0.01-1.31-0.18-1.78c-0.33-0.98-0.72-1.57-1.47-2.27c-1.02-0.95-2.41-1.67-5.61-2.92
				c-1.22-0.47-1.97-0.87-2.32-1.24c-0.51-0.52-0.57-1.17-0.16-1.74s1.1-0.83,2.23-0.83c1.27,0,2.28,0.31,3.32,1.01
				c1.21,0.82,1.27,0.84,1.7,0.84c0.69,0,1.04-0.27,1.85-1.4c0.29-0.41,0.35-0.54,0.37-0.9c0.04-0.5-0.09-0.76-0.6-1.23
				c-1.3-1.21-3.48-2.05-5.75-2.24C178.14,9.11,178.02,9.11,177.05,9.2z"/>
			<path class="st0" d="M195.71,9.19c-3.27,0.3-5.49,1.85-6.2,4.33c-0.24,0.87-0.23,2.21,0.04,3.04c0.32,0.99,0.9,1.78,1.78,2.44
				c0.93,0.69,2.13,1.27,3.85,1.86c1.14,0.39,2.66,1.05,3.13,1.35c0.76,0.5,1.05,0.96,1.05,1.71c0,0.58-0.13,0.87-0.55,1.24
				c-0.54,0.48-1.13,0.65-2.23,0.65c-1.64,0-3.15-0.56-4.59-1.7c-0.6-0.47-1.17-0.78-1.47-0.78c-0.36,0-0.76,0.27-1.38,0.94
				c-0.7,0.75-0.89,1.07-0.89,1.51c0,0.45,0.18,0.75,0.81,1.35c2.42,2.27,6.41,3.27,10.05,2.52c1.06-0.21,2.17-0.67,2.98-1.23
				c0.72-0.5,1.5-1.44,1.86-2.24c0.66-1.48,0.59-3.55-0.15-4.92c-0.87-1.61-2.41-2.66-5.99-4.05c-2.41-0.94-3.07-1.32-3.34-1.91
				c-0.39-0.86,0.1-1.71,1.18-2.04c0.95-0.3,2.51-0.16,3.58,0.33c0.23,0.1,0.79,0.44,1.26,0.76l0.84,0.58h0.56
				c0.5,0,0.58-0.02,0.83-0.21c0.28-0.22,1.07-1.21,1.27-1.6c0.31-0.59,0.04-1.26-0.78-1.9C201.29,9.7,198.45,8.94,195.71,9.19z"/>
		</g>
		<g>
			<path class="st1" d="M25.98,26.57c-0.07,0.08-0.14,0.16-0.22,0.23l-2.14-1.94c4.37-4.91,3.98-12.44-0.91-16.87
				S10.29,3.91,5.83,8.74L3.7,6.81c0.06-0.09,0.13-0.16,0.2-0.24C9.43,0.46,18.84,0,24.94,5.52C31.04,11.04,31.51,20.47,25.98,26.57
				z"/>
			<path class="st2" d="M25.76,26.79c-5.55,5.88-14.81,6.26-20.82,0.81C-1.08,22.15-1.6,12.9,3.7,6.81l2.13,1.93
				c4.46-4.83,12-5.18,16.88-0.75s5.28,11.96,0.91,16.87L25.76,26.79z"/>
			<path class="st3" d="M24.06,24.73l-0.08,0.09c-4.48,4.95-12.14,5.33-17.09,0.84S1.55,13.51,6.03,8.56l0.08-0.09
				c4.49-4.87,12.1-5.22,17.03-0.76S28.46,19.78,24.06,24.73z"/>
			<path class="st4" d="M21.99,7.77l-2.31,5.54l-1.39,3.35c0-0.11-0.01-0.23-0.02-0.34c-0.09-0.91-0.53-1.78-1.29-2.41
				c-0.77-0.62-1.71-0.88-2.62-0.78c-0.11,0.01-0.22,0.03-0.33,0.05l3-2.04L21.99,7.77L21.99,7.77z"/>
			<path class="st0" d="M15.42,20.19l-3,2.04l-4.96,3.37l2.31-5.54l1.39-3.35c0,0.11,0.01,0.23,0.02,0.34
				c0.09,0.91,0.53,1.78,1.3,2.4c0.76,0.62,1.71,0.88,2.62,0.78C15.19,20.23,15.31,20.21,15.42,20.19L15.42,20.19z"/>
			<path class="st0" d="M17.23,16.43c-0.07-0.64-0.38-1.26-0.92-1.7c-0.54-0.44-1.21-0.62-1.85-0.56c-0.64,0.07-1.26,0.38-1.7,0.92
				c-0.44,0.54-0.62,1.21-0.55,1.85c0.07,0.64,0.38,1.26,0.92,1.7c0.54,0.44,1.21,0.62,1.85,0.56c0.64-0.07,1.26-0.38,1.7-0.92l0,0
				C17.12,17.75,17.3,17.08,17.23,16.43L17.23,16.43z"/>
		</g>
	</g>
</g>
</svg>
