<?xml version="1.0" encoding="utf-8"?>
<!-- Generator: Adobe Illustrator 22.1.0, SVG Export Plug-In . SVG Version: 6.00 Build 0)  -->
<svg version="1.1" id="Zoom" xmlns="http://www.w3.org/2000/svg" xmlns:xlink="http://www.w3.org/1999/xlink" x="0px" y="0px"
	 viewBox="0 0 20 20" style="enable-background:new 0 0 20 20;" xml:space="preserve">
<path d="M19.626,17.824l-4.289-4.289C16.378,12.124,17,10.387,17,8.5C17,3.806,13.194,0,8.5,0S0,3.806,0,8.5
	C0,13.194,3.806,17,8.5,17c1.887,0,3.624-0.622,5.034-1.663l4.289,4.289C18.073,19.875,18.399,20,18.725,20s0.653-0.125,0.901-0.374
	C20.125,19.129,20.125,18.321,19.626,17.824z M2.5,8.5c0-3.308,2.692-6,6-6s6,2.692,6,6c0,3.308-2.692,6-6,6S2.5,11.808,2.5,8.5z"/>
</svg>
