<svg xmlns="http://www.w3.org/2000/svg" viewBox="0 0 67 34"><defs><style>.cls-1{fill:#d02910;}.cls-2{fill:#ffd000;}</style></defs><title>Asset 19</title><g id="Layer_2" data-name="Layer 2"><g id="Layer_1-2" data-name="Layer 1"><rect id="_6" data-name="6" class="cls-1" width="67" height="34"/><polygon id="_5" data-name="5" class="cls-2" points="11.17 4.47 15.11 16.59 4.79 9.1 17.54 9.1 7.23 16.59 11.17 4.47"/><polygon id="_4" data-name="4" class="cls-2" points="20.42 5.62 23.21 2.41 22.83 6.64 20.65 3 24.56 4.66 20.42 5.62"/><polygon id="_3" data-name="3" class="cls-2" points="24.59 9.25 28.4 7.38 26.42 11.13 25.82 6.93 28.77 9.98 24.59 9.25"/><polygon id="_2" data-name="2" class="cls-2" points="24.65 15.02 28.9 14.87 25.55 17.49 26.72 13.4 28.18 17.39 24.65 15.02"/><polygon id="_1" data-name="1" class="cls-2" points="20.59 18.7 24.56 20.2 20.47 21.33 23.12 18.01 22.92 22.25 20.59 18.7"/></g></g></svg>