<svg xmlns="http://www.w3.org/2000/svg" viewBox="0 0 66.8 33.4"><defs><style>.cls-1{fill:#fff;}.cls-2{fill:#c20f14;}.cls-3{fill:#00305b;}</style></defs><title>Asset 18</title><g id="Layer_2" data-name="Layer 2"><g id="Layer_1-2" data-name="Layer 1"><rect class="cls-1" width="66.8" height="33.4"/><polyline class="cls-2" points="66.8 13.36 36.74 13.36 36.74 0 30.06 0 30.06 13.36 0 13.36 0 20.04 30.06 20.04 30.06 33.4 36.74 33.4 36.74 20.04 66.8 20.04"/><path class="cls-2" d="M44.54,22.27h5L66.8,30.91V33.4M22.27,11.13h-5L0,2.49V0Zm0,11.14h5L5,33.4H0ZM44.54,11.13h-5L61.82,0h5Z"/><path class="cls-3" d="M0,22.27v7.4l14.8-7.4m52,0v7.4L52,22.27ZM0,11.13V3.73l14.8,7.4Zm66.8,0V3.73L52,11.13Zm-39,22.27V23.22L7.47,33.4ZM39,33.4V23.22L59.33,33.4ZM27.83,0V10.18L7.47,0ZM39,0V10.18L59.33,0Z"/></g></g></svg>