<svg xmlns="http://www.w3.org/2000/svg" viewBox="0 0 66.34 33.17"><defs><style>.cls-1{fill:#fff;}.cls-2{fill:#b11731;}.cls-3{fill:#22325f;}</style></defs><title>Asset 17</title><g id="Layer_2" data-name="Layer 2"><g id="Layer_1-2" data-name="Layer 1"><rect class="cls-1" width="66.34" height="33.17"/><rect id="stripe" class="cls-2" width="66.34" height="2.55"/><rect id="stripe-2" data-name="stripe" class="cls-2" y="5.1" width="66.34" height="2.55"/><rect id="stripe-3" data-name="stripe" class="cls-2" y="10.21" width="66.34" height="2.55"/><rect id="stripe-4" data-name="stripe" class="cls-2" y="15.31" width="66.34" height="2.55"/><rect id="stripe-5" data-name="stripe" class="cls-2" y="20.41" width="66.34" height="2.55"/><rect id="stripe-6" data-name="stripe" class="cls-2" y="25.51" width="66.34" height="2.55"/><rect id="stripe-7" data-name="stripe" class="cls-2" y="30.62" width="66.34" height="2.55"/><rect class="cls-3" width="25.21" height="17.86"/><g id="_Group_" data-name="&lt;Group&gt;"><g id="star"><polygon id="pt" class="cls-1" points="2.42 1.96 1.55 2.59 1.89 1.57 2.42 1.96"/><polygon id="pt-2" data-name="pt" class="cls-1" points="2.05 2.08 1.18 1.45 2.26 1.45 2.05 2.08"/><polygon id="pt-3" data-name="pt" class="cls-1" points="1.82 1.77 2.16 0.74 2.49 1.77 1.82 1.77"/><polygon id="pt-4" data-name="pt" class="cls-1" points="2.05 1.45 3.13 1.45 2.26 2.08 2.05 1.45"/><polygon id="pt-5" data-name="pt" class="cls-1" points="2.42 1.57 2.76 2.59 1.89 1.96 2.42 1.57"/></g><g id="star-2" data-name="star"><polygon id="pt-6" data-name="pt" class="cls-1" points="6.6 1.96 5.74 2.59 6.07 1.57 6.6 1.96"/><polygon id="pt-7" data-name="pt" class="cls-1" points="6.23 2.08 5.36 1.45 6.44 1.45 6.23 2.08"/><polygon id="pt-8" data-name="pt" class="cls-1" points="6 1.77 6.33 0.74 6.67 1.77 6 1.77"/><polygon id="pt-9" data-name="pt" class="cls-1" points="6.23 1.45 7.31 1.45 6.44 2.08 6.23 1.45"/><polygon id="pt-10" data-name="pt" class="cls-1" points="6.6 1.57 6.93 2.59 6.07 1.96 6.6 1.57"/></g><g id="star-3" data-name="star"><polygon id="pt-11" data-name="pt" class="cls-1" points="10.78 1.96 9.91 2.59 10.25 1.57 10.78 1.96"/><polygon id="pt-12" data-name="pt" class="cls-1" points="10.41 2.08 9.54 1.45 10.62 1.45 10.41 2.08"/><polygon id="pt-13" data-name="pt" class="cls-1" points="10.18 1.77 10.51 0.74 10.85 1.77 10.18 1.77"/><polygon id="pt-14" data-name="pt" class="cls-1" points="10.41 1.45 11.49 1.45 10.62 2.08 10.41 1.45"/><polygon id="pt-15" data-name="pt" class="cls-1" points="10.78 1.57 11.12 2.59 10.25 1.96 10.78 1.57"/></g><g id="star-4" data-name="star"><polygon id="pt-16" data-name="pt" class="cls-1" points="14.96 1.96 14.09 2.59 14.43 1.57 14.96 1.96"/><polygon id="pt-17" data-name="pt" class="cls-1" points="14.59 2.08 13.72 1.45 14.8 1.45 14.59 2.08"/><polygon id="pt-18" data-name="pt" class="cls-1" points="14.36 1.77 14.69 0.74 15.03 1.77 14.36 1.77"/><polygon id="pt-19" data-name="pt" class="cls-1" points="14.59 1.45 15.66 1.45 14.8 2.08 14.59 1.45"/><polygon id="pt-20" data-name="pt" class="cls-1" points="14.96 1.57 15.29 2.59 14.43 1.96 14.96 1.57"/></g><g id="s5"><g id="star-5" data-name="star"><polygon id="pt-21" data-name="pt" class="cls-1" points="19.14 1.96 18.27 2.59 18.6 1.57 19.14 1.96"/><polygon id="pt-22" data-name="pt" class="cls-1" points="18.77 2.08 17.9 1.45 18.98 1.45 18.77 2.08"/><polygon id="pt-23" data-name="pt" class="cls-1" points="18.54 1.77 18.87 0.74 19.2 1.77 18.54 1.77"/><polygon id="pt-24" data-name="pt" class="cls-1" points="18.77 1.45 19.84 1.45 18.98 2.08 18.77 1.45"/><polygon id="pt-25" data-name="pt" class="cls-1" points="19.14 1.57 19.47 2.59 18.6 1.96 19.14 1.57"/></g></g><g id="s6"><g id="star-6" data-name="star"><polygon id="pt-26" data-name="pt" class="cls-1" points="23.32 1.96 22.45 2.59 22.78 1.57 23.32 1.96"/><polygon id="pt-27" data-name="pt" class="cls-1" points="22.95 2.08 22.08 1.45 23.15 1.45 22.95 2.08"/><polygon id="pt-28" data-name="pt" class="cls-1" points="22.72 1.77 23.05 0.74 23.38 1.77 22.72 1.77"/><polygon id="pt-29" data-name="pt" class="cls-1" points="22.95 1.45 24.02 1.45 23.15 2.08 22.95 1.45"/><polygon id="pt-30" data-name="pt" class="cls-1" points="23.32 1.57 23.65 2.59 22.78 1.96 23.32 1.57"/></g></g><g id="_star_b2_" data-name="&lt;star b2&gt;"><g id="star-7" data-name="star"><polygon id="pt-31" data-name="pt" class="cls-1" points="4.51 3.75 3.65 4.38 3.98 3.36 4.51 3.75"/><polygon id="pt-32" data-name="pt" class="cls-1" points="4.14 3.87 3.27 3.24 4.35 3.24 4.14 3.87"/><polygon id="pt-33" data-name="pt" class="cls-1" points="3.91 3.56 4.25 2.54 4.58 3.56 3.91 3.56"/><polygon id="pt-34" data-name="pt" class="cls-1" points="4.14 3.24 5.22 3.24 4.35 3.87 4.14 3.24"/><polygon id="pt-35" data-name="pt" class="cls-1" points="4.51 3.36 4.85 4.38 3.98 3.75 4.51 3.36"/></g><g id="star-8" data-name="star"><polygon id="pt-36" data-name="pt" class="cls-1" points="8.69 3.75 7.82 4.38 8.16 3.36 8.69 3.75"/><polygon id="pt-37" data-name="pt" class="cls-1" points="8.32 3.87 7.45 3.24 8.53 3.24 8.32 3.87"/><polygon id="pt-38" data-name="pt" class="cls-1" points="8.09 3.56 8.43 2.54 8.76 3.56 8.09 3.56"/><polygon id="pt-39" data-name="pt" class="cls-1" points="8.32 3.24 9.4 3.24 8.53 3.87 8.32 3.24"/><polygon id="pt-40" data-name="pt" class="cls-1" points="8.69 3.36 9.03 4.38 8.16 3.75 8.69 3.36"/></g><g id="star-9" data-name="star"><polygon id="pt-41" data-name="pt" class="cls-1" points="12.87 3.75 12 4.38 12.34 3.36 12.87 3.75"/><polygon id="pt-42" data-name="pt" class="cls-1" points="12.5 3.87 11.63 3.24 12.71 3.24 12.5 3.87"/><polygon id="pt-43" data-name="pt" class="cls-1" points="12.27 3.56 12.6 2.54 12.94 3.56 12.27 3.56"/><polygon id="pt-44" data-name="pt" class="cls-1" points="12.5 3.24 13.57 3.24 12.71 3.87 12.5 3.24"/><polygon id="pt-45" data-name="pt" class="cls-1" points="12.87 3.36 13.2 4.38 12.34 3.75 12.87 3.36"/></g><g id="star-10" data-name="star"><polygon id="pt-46" data-name="pt" class="cls-1" points="17.05 3.75 16.18 4.38 16.51 3.36 17.05 3.75"/><polygon id="pt-47" data-name="pt" class="cls-1" points="16.68 3.87 15.81 3.24 16.89 3.24 16.68 3.87"/><polygon id="pt-48" data-name="pt" class="cls-1" points="16.45 3.56 16.78 2.54 17.11 3.56 16.45 3.56"/><polygon id="pt-49" data-name="pt" class="cls-1" points="16.68 3.24 17.75 3.24 16.89 3.87 16.68 3.24"/><polygon id="pt-50" data-name="pt" class="cls-1" points="17.05 3.36 17.38 4.38 16.51 3.75 17.05 3.36"/></g><g id="s5-2" data-name="s5"><g id="star-11" data-name="star"><polygon id="pt-51" data-name="pt" class="cls-1" points="21.23 3.75 20.36 4.38 20.69 3.36 21.23 3.75"/><polygon id="pt-52" data-name="pt" class="cls-1" points="20.86 3.87 19.99 3.24 21.06 3.24 20.86 3.87"/><polygon id="pt-53" data-name="pt" class="cls-1" points="20.63 3.56 20.96 2.54 21.29 3.56 20.63 3.56"/><polygon id="pt-54" data-name="pt" class="cls-1" points="20.86 3.24 21.93 3.24 21.06 3.87 20.86 3.24"/><polygon id="pt-55" data-name="pt" class="cls-1" points="21.23 3.36 21.56 4.38 20.69 3.75 21.23 3.36"/></g></g></g><g id="_star_b3_" data-name="&lt;star b3&gt;"><g id="star-12" data-name="star"><polygon id="pt-56" data-name="pt" class="cls-1" points="2.42 5.54 1.55 6.17 1.89 5.15 2.42 5.54"/><polygon id="pt-57" data-name="pt" class="cls-1" points="2.05 5.66 1.18 5.03 2.26 5.03 2.05 5.66"/><polygon id="pt-58" data-name="pt" class="cls-1" points="1.82 5.35 2.16 4.33 2.49 5.35 1.82 5.35"/><polygon id="pt-59" data-name="pt" class="cls-1" points="2.05 5.03 3.13 5.03 2.26 5.66 2.05 5.03"/><polygon id="pt-60" data-name="pt" class="cls-1" points="2.42 5.15 2.76 6.17 1.89 5.54 2.42 5.15"/></g><g id="star-13" data-name="star"><polygon id="pt-61" data-name="pt" class="cls-1" points="6.6 5.54 5.74 6.17 6.07 5.15 6.6 5.54"/><polygon id="pt-62" data-name="pt" class="cls-1" points="6.23 5.66 5.36 5.03 6.44 5.03 6.23 5.66"/><polygon id="pt-63" data-name="pt" class="cls-1" points="6 5.35 6.33 4.33 6.67 5.35 6 5.35"/><polygon id="pt-64" data-name="pt" class="cls-1" points="6.23 5.03 7.31 5.03 6.44 5.66 6.23 5.03"/><polygon id="pt-65" data-name="pt" class="cls-1" points="6.6 5.15 6.93 6.17 6.07 5.54 6.6 5.15"/></g><g id="star-14" data-name="star"><polygon id="pt-66" data-name="pt" class="cls-1" points="10.78 5.54 9.91 6.17 10.25 5.15 10.78 5.54"/><polygon id="pt-67" data-name="pt" class="cls-1" points="10.41 5.66 9.54 5.03 10.62 5.03 10.41 5.66"/><polygon id="pt-68" data-name="pt" class="cls-1" points="10.18 5.35 10.51 4.33 10.85 5.35 10.18 5.35"/><polygon id="pt-69" data-name="pt" class="cls-1" points="10.41 5.03 11.49 5.03 10.62 5.66 10.41 5.03"/><polygon id="pt-70" data-name="pt" class="cls-1" points="10.78 5.15 11.12 6.17 10.25 5.54 10.78 5.15"/></g><g id="star-15" data-name="star"><polygon id="pt-71" data-name="pt" class="cls-1" points="14.96 5.54 14.09 6.17 14.43 5.15 14.96 5.54"/><polygon id="pt-72" data-name="pt" class="cls-1" points="14.59 5.66 13.72 5.03 14.8 5.03 14.59 5.66"/><polygon id="pt-73" data-name="pt" class="cls-1" points="14.36 5.35 14.69 4.33 15.03 5.35 14.36 5.35"/><polygon id="pt-74" data-name="pt" class="cls-1" points="14.59 5.03 15.66 5.03 14.8 5.66 14.59 5.03"/><polygon id="pt-75" data-name="pt" class="cls-1" points="14.96 5.15 15.29 6.17 14.43 5.54 14.96 5.15"/></g><g id="s5-3" data-name="s5"><g id="star-16" data-name="star"><polygon id="pt-76" data-name="pt" class="cls-1" points="19.14 5.54 18.27 6.17 18.6 5.15 19.14 5.54"/><polygon id="pt-77" data-name="pt" class="cls-1" points="18.77 5.66 17.9 5.03 18.98 5.03 18.77 5.66"/><polygon id="pt-78" data-name="pt" class="cls-1" points="18.54 5.35 18.87 4.33 19.2 5.35 18.54 5.35"/><polygon id="pt-79" data-name="pt" class="cls-1" points="18.77 5.03 19.84 5.03 18.98 5.66 18.77 5.03"/><polygon id="pt-80" data-name="pt" class="cls-1" points="19.14 5.15 19.47 6.17 18.6 5.54 19.14 5.15"/></g></g><g id="s6-2" data-name="s6"><g id="star-17" data-name="star"><polygon id="pt-81" data-name="pt" class="cls-1" points="23.32 5.54 22.45 6.17 22.78 5.15 23.32 5.54"/><polygon id="pt-82" data-name="pt" class="cls-1" points="22.95 5.66 22.08 5.03 23.15 5.03 22.95 5.66"/><polygon id="pt-83" data-name="pt" class="cls-1" points="22.72 5.35 23.05 4.33 23.38 5.35 22.72 5.35"/><polygon id="pt-84" data-name="pt" class="cls-1" points="22.95 5.03 24.02 5.03 23.15 5.66 22.95 5.03"/><polygon id="pt-85" data-name="pt" class="cls-1" points="23.32 5.15 23.65 6.17 22.78 5.54 23.32 5.15"/></g></g></g><g id="_star_b4_" data-name="&lt;star b4&gt;"><g id="star-23" data-name="star"><polygon id="pt-86" data-name="pt" class="cls-1" points="4.57 7.34 3.7 7.97 4.03 6.95 4.57 7.34"/><polygon id="pt-87" data-name="pt" class="cls-1" points="4.19 7.46 3.33 6.83 4.4 6.83 4.19 7.46"/><polygon id="pt-88" data-name="pt" class="cls-1" points="3.96 7.14 4.3 6.12 4.63 7.14 3.96 7.14"/><polygon id="pt-89" data-name="pt" class="cls-1" points="4.19 6.83 5.27 6.83 4.4 7.46 4.19 6.83"/><polygon id="pt-90" data-name="pt" class="cls-1" points="4.57 6.95 4.9 7.97 4.03 7.34 4.57 6.95"/></g><g id="star-24" data-name="star"><polygon id="pt-91" data-name="pt" class="cls-1" points="8.74 7.34 7.88 7.97 8.21 6.95 8.74 7.34"/><polygon id="pt-92" data-name="pt" class="cls-1" points="8.37 7.46 7.5 6.83 8.58 6.83 8.37 7.46"/><polygon id="pt-93" data-name="pt" class="cls-1" points="8.14 7.14 8.48 6.12 8.81 7.14 8.14 7.14"/><polygon id="pt-94" data-name="pt" class="cls-1" points="8.37 6.83 9.45 6.83 8.58 7.46 8.37 6.83"/><polygon id="pt-95" data-name="pt" class="cls-1" points="8.74 6.95 9.08 7.97 8.21 7.34 8.74 6.95"/></g><g id="star-25" data-name="star"><polygon id="pt-96" data-name="pt" class="cls-1" points="12.92 7.34 12.05 7.97 12.39 6.95 12.92 7.34"/><polygon id="pt-97" data-name="pt" class="cls-1" points="12.55 7.46 11.68 6.83 12.76 6.83 12.55 7.46"/><polygon id="pt-98" data-name="pt" class="cls-1" points="12.32 7.14 12.65 6.12 12.99 7.14 12.32 7.14"/><polygon id="pt-99" data-name="pt" class="cls-1" points="12.55 6.83 13.63 6.83 12.76 7.46 12.55 6.83"/><polygon id="pt-100" data-name="pt" class="cls-1" points="12.92 6.95 13.26 7.97 12.39 7.34 12.92 6.95"/></g><g id="star-26" data-name="star"><polygon id="pt-101" data-name="pt" class="cls-1" points="17.1 7.34 16.23 7.97 16.57 6.95 17.1 7.34"/><polygon id="pt-102" data-name="pt" class="cls-1" points="16.73 7.46 15.86 6.83 16.94 6.83 16.73 7.46"/><polygon id="pt-103" data-name="pt" class="cls-1" points="16.5 7.14 16.83 6.12 17.17 7.14 16.5 7.14"/><polygon id="pt-104" data-name="pt" class="cls-1" points="16.73 6.83 17.81 6.83 16.94 7.46 16.73 6.83"/><polygon id="pt-105" data-name="pt" class="cls-1" points="17.1 6.95 17.43 7.97 16.57 7.34 17.1 6.95"/></g><g id="s5-6" data-name="s5"><g id="star-27" data-name="star"><polygon id="pt-106" data-name="pt" class="cls-1" points="21.28 7.34 20.41 7.97 20.75 6.95 21.28 7.34"/><polygon id="pt-107" data-name="pt" class="cls-1" points="20.91 7.46 20.04 6.83 21.12 6.83 20.91 7.46"/><polygon id="pt-108" data-name="pt" class="cls-1" points="20.68 7.14 21.01 6.12 21.34 7.14 20.68 7.14"/><polygon id="pt-109" data-name="pt" class="cls-1" points="20.91 6.83 21.98 6.83 21.12 7.46 20.91 6.83"/><polygon id="pt-110" data-name="pt" class="cls-1" points="21.28 6.95 21.61 7.97 20.75 7.34 21.28 6.95"/></g></g></g><g id="_star_b3_2" data-name="&lt;star b3&gt;"><g id="star-28" data-name="star"><polygon id="pt-111" data-name="pt" class="cls-1" points="2.49 9.12 1.62 9.75 1.95 8.73 2.49 9.12"/><polygon id="pt-112" data-name="pt" class="cls-1" points="2.12 9.24 1.25 8.61 2.32 8.61 2.12 9.24"/><polygon id="pt-113" data-name="pt" class="cls-1" points="1.89 8.92 2.22 7.9 2.55 8.92 1.89 8.92"/><polygon id="pt-114" data-name="pt" class="cls-1" points="2.12 8.61 3.19 8.61 2.32 9.24 2.12 8.61"/><polygon id="pt-115" data-name="pt" class="cls-1" points="2.49 8.73 2.82 9.75 1.95 9.12 2.49 8.73"/></g><g id="star-29" data-name="star"><polygon id="pt-116" data-name="pt" class="cls-1" points="6.67 9.12 5.8 9.75 6.13 8.73 6.67 9.12"/><polygon id="pt-117" data-name="pt" class="cls-1" points="6.3 9.24 5.43 8.61 6.5 8.61 6.3 9.24"/><polygon id="pt-118" data-name="pt" class="cls-1" points="6.07 8.92 6.4 7.9 6.73 8.92 6.07 8.92"/><polygon id="pt-119" data-name="pt" class="cls-1" points="6.3 8.61 7.37 8.61 6.5 9.24 6.3 8.61"/><polygon id="pt-120" data-name="pt" class="cls-1" points="6.67 8.73 7 9.75 6.13 9.12 6.67 8.73"/></g><g id="star-30" data-name="star"><polygon id="pt-121" data-name="pt" class="cls-1" points="10.85 9.12 9.98 9.75 10.31 8.73 10.85 9.12"/><polygon id="pt-122" data-name="pt" class="cls-1" points="10.47 9.24 9.61 8.61 10.68 8.61 10.47 9.24"/><polygon id="pt-123" data-name="pt" class="cls-1" points="10.25 8.92 10.58 7.9 10.91 8.92 10.25 8.92"/><polygon id="pt-124" data-name="pt" class="cls-1" points="10.47 8.61 11.55 8.61 10.68 9.24 10.47 8.61"/><polygon id="pt-125" data-name="pt" class="cls-1" points="10.85 8.73 11.18 9.75 10.31 9.12 10.85 8.73"/></g><g id="star-31" data-name="star"><polygon id="pt-126" data-name="pt" class="cls-1" points="15.03 9.12 14.16 9.75 14.49 8.73 15.03 9.12"/><polygon id="pt-127" data-name="pt" class="cls-1" points="14.65 9.24 13.79 8.61 14.86 8.61 14.65 9.24"/><polygon id="pt-128" data-name="pt" class="cls-1" points="14.43 8.92 14.76 7.9 15.09 8.92 14.43 8.92"/><polygon id="pt-129" data-name="pt" class="cls-1" points="14.65 8.61 15.73 8.61 14.86 9.24 14.65 8.61"/><polygon id="pt-130" data-name="pt" class="cls-1" points="15.03 8.73 15.36 9.75 14.49 9.12 15.03 8.73"/></g><g id="s5-7" data-name="s5"><g id="star-32" data-name="star"><polygon id="pt-131" data-name="pt" class="cls-1" points="19.2 9.12 18.34 9.75 18.67 8.73 19.2 9.12"/><polygon id="pt-132" data-name="pt" class="cls-1" points="18.83 9.24 17.96 8.61 19.04 8.61 18.83 9.24"/><polygon id="pt-133" data-name="pt" class="cls-1" points="18.6 8.92 18.94 7.9 19.27 8.92 18.6 8.92"/><polygon id="pt-134" data-name="pt" class="cls-1" points="18.83 8.61 19.91 8.61 19.04 9.24 18.83 8.61"/><polygon id="pt-135" data-name="pt" class="cls-1" points="19.2 8.73 19.54 9.75 18.67 9.12 19.2 8.73"/></g></g><g id="s6-6" data-name="s6"><g id="star-33" data-name="star"><polygon id="pt-136" data-name="pt" class="cls-1" points="23.38 9.12 22.51 9.75 22.85 8.73 23.38 9.12"/><polygon id="pt-137" data-name="pt" class="cls-1" points="23.01 9.24 22.14 8.61 23.22 8.61 23.01 9.24"/><polygon id="pt-138" data-name="pt" class="cls-1" points="22.78 8.92 23.11 7.9 23.45 8.92 22.78 8.92"/><polygon id="pt-139" data-name="pt" class="cls-1" points="23.01 8.61 24.09 8.61 23.22 9.24 23.01 8.61"/><polygon id="pt-140" data-name="pt" class="cls-1" points="23.38 8.73 23.71 9.75 22.85 9.12 23.38 8.73"/></g></g></g><g id="_star_b4_2" data-name="&lt;star b4&gt;"><g id="star-39" data-name="star"><polygon id="pt-141" data-name="pt" class="cls-1" points="4.58 10.86 3.71 11.49 4.04 10.47 4.58 10.86"/><polygon id="pt-142" data-name="pt" class="cls-1" points="4.21 10.98 3.34 10.35 4.41 10.35 4.21 10.98"/><polygon id="pt-143" data-name="pt" class="cls-1" points="3.98 10.67 4.31 9.64 4.64 10.67 3.98 10.67"/><polygon id="pt-144" data-name="pt" class="cls-1" points="4.21 10.35 5.28 10.35 4.41 10.98 4.21 10.35"/><polygon id="pt-145" data-name="pt" class="cls-1" points="4.58 10.47 4.91 11.49 4.04 10.86 4.58 10.47"/></g><g id="star-40" data-name="star"><polygon id="pt-146" data-name="pt" class="cls-1" points="8.76 10.86 7.89 11.49 8.22 10.47 8.76 10.86"/><polygon id="pt-147" data-name="pt" class="cls-1" points="8.39 10.98 7.52 10.35 8.59 10.35 8.39 10.98"/><polygon id="pt-148" data-name="pt" class="cls-1" points="8.16 10.67 8.49 9.64 8.82 10.67 8.16 10.67"/><polygon id="pt-149" data-name="pt" class="cls-1" points="8.39 10.35 9.46 10.35 8.59 10.98 8.39 10.35"/><polygon id="pt-150" data-name="pt" class="cls-1" points="8.76 10.47 9.09 11.49 8.22 10.86 8.76 10.47"/></g><g id="star-41" data-name="star"><polygon id="pt-151" data-name="pt" class="cls-1" points="12.94 10.86 12.07 11.49 12.4 10.47 12.94 10.86"/><polygon id="pt-152" data-name="pt" class="cls-1" points="12.56 10.98 11.7 10.35 12.77 10.35 12.56 10.98"/><polygon id="pt-153" data-name="pt" class="cls-1" points="12.34 10.67 12.67 9.64 13 10.67 12.34 10.67"/><polygon id="pt-154" data-name="pt" class="cls-1" points="12.56 10.35 13.64 10.35 12.77 10.98 12.56 10.35"/><polygon id="pt-155" data-name="pt" class="cls-1" points="12.94 10.47 13.27 11.49 12.4 10.86 12.94 10.47"/></g><g id="star-42" data-name="star"><polygon id="pt-156" data-name="pt" class="cls-1" points="17.11 10.86 16.25 11.49 16.58 10.47 17.11 10.86"/><polygon id="pt-157" data-name="pt" class="cls-1" points="16.74 10.98 15.88 10.35 16.95 10.35 16.74 10.98"/><polygon id="pt-158" data-name="pt" class="cls-1" points="16.52 10.67 16.85 9.64 17.18 10.67 16.52 10.67"/><polygon id="pt-159" data-name="pt" class="cls-1" points="16.74 10.35 17.82 10.35 16.95 10.98 16.74 10.35"/><polygon id="pt-160" data-name="pt" class="cls-1" points="17.11 10.47 17.45 11.49 16.58 10.86 17.11 10.47"/></g><g id="s5-10" data-name="s5"><g id="star-43" data-name="star"><polygon id="pt-161" data-name="pt" class="cls-1" points="21.29 10.86 20.43 11.49 20.76 10.47 21.29 10.86"/><polygon id="pt-162" data-name="pt" class="cls-1" points="20.92 10.98 20.05 10.35 21.13 10.35 20.92 10.98"/><polygon id="pt-163" data-name="pt" class="cls-1" points="20.69 10.67 21.03 9.64 21.36 10.67 20.69 10.67"/><polygon id="pt-164" data-name="pt" class="cls-1" points="20.92 10.35 22 10.35 21.13 10.98 20.92 10.35"/><polygon id="pt-165" data-name="pt" class="cls-1" points="21.29 10.47 21.63 11.49 20.76 10.86 21.29 10.47"/></g></g></g><g id="_star_b3_3" data-name="&lt;star b3&gt;"><g id="star-44" data-name="star"><polygon id="pt-166" data-name="pt" class="cls-1" points="2.53 12.64 1.66 13.27 1.99 12.25 2.53 12.64"/><polygon id="pt-167" data-name="pt" class="cls-1" points="2.16 12.76 1.29 12.13 2.36 12.13 2.16 12.76"/><polygon id="pt-168" data-name="pt" class="cls-1" points="1.93 12.45 2.26 11.43 2.59 12.45 1.93 12.45"/><polygon id="pt-169" data-name="pt" class="cls-1" points="2.16 12.13 3.23 12.13 2.36 12.76 2.16 12.13"/><polygon id="pt-170" data-name="pt" class="cls-1" points="2.53 12.25 2.86 13.27 1.99 12.64 2.53 12.25"/></g><g id="star-45" data-name="star"><polygon id="pt-171" data-name="pt" class="cls-1" points="6.71 12.64 5.84 13.27 6.17 12.25 6.71 12.64"/><polygon id="pt-172" data-name="pt" class="cls-1" points="6.33 12.76 5.47 12.13 6.54 12.13 6.33 12.76"/><polygon id="pt-173" data-name="pt" class="cls-1" points="6.11 12.45 6.44 11.43 6.77 12.45 6.11 12.45"/><polygon id="pt-174" data-name="pt" class="cls-1" points="6.33 12.13 7.41 12.13 6.54 12.76 6.33 12.13"/><polygon id="pt-175" data-name="pt" class="cls-1" points="6.71 12.25 7.04 13.27 6.17 12.64 6.71 12.25"/></g><g id="star-46" data-name="star"><polygon id="pt-176" data-name="pt" class="cls-1" points="10.88 12.64 10.02 13.27 10.35 12.25 10.88 12.64"/><polygon id="pt-177" data-name="pt" class="cls-1" points="10.51 12.76 9.64 12.13 10.72 12.13 10.51 12.76"/><polygon id="pt-178" data-name="pt" class="cls-1" points="10.29 12.45 10.62 11.43 10.95 12.45 10.29 12.45"/><polygon id="pt-179" data-name="pt" class="cls-1" points="10.51 12.13 11.59 12.13 10.72 12.76 10.51 12.13"/><polygon id="pt-180" data-name="pt" class="cls-1" points="10.88 12.25 11.22 13.27 10.35 12.64 10.88 12.25"/></g><g id="star-47" data-name="star"><polygon id="pt-181" data-name="pt" class="cls-1" points="15.06 12.64 14.2 13.27 14.53 12.25 15.06 12.64"/><polygon id="pt-182" data-name="pt" class="cls-1" points="14.69 12.76 13.82 12.13 14.9 12.13 14.69 12.76"/><polygon id="pt-183" data-name="pt" class="cls-1" points="14.46 12.45 14.8 11.43 15.13 12.45 14.46 12.45"/><polygon id="pt-184" data-name="pt" class="cls-1" points="14.69 12.13 15.77 12.13 14.9 12.76 14.69 12.13"/><polygon id="pt-185" data-name="pt" class="cls-1" points="15.06 12.25 15.4 13.27 14.53 12.64 15.06 12.25"/></g><g id="s5-11" data-name="s5"><g id="star-48" data-name="star"><polygon id="pt-186" data-name="pt" class="cls-1" points="19.24 12.64 18.37 13.27 18.71 12.25 19.24 12.64"/><polygon id="pt-187" data-name="pt" class="cls-1" points="18.87 12.76 18 12.13 19.08 12.13 18.87 12.76"/><polygon id="pt-188" data-name="pt" class="cls-1" points="18.64 12.45 18.98 11.43 19.31 12.45 18.64 12.45"/><polygon id="pt-189" data-name="pt" class="cls-1" points="18.87 12.13 19.95 12.13 19.08 12.76 18.87 12.13"/><polygon id="pt-190" data-name="pt" class="cls-1" points="19.24 12.25 19.57 13.27 18.71 12.64 19.24 12.25"/></g></g><g id="s6-10" data-name="s6"><g id="star-49" data-name="star"><polygon id="pt-191" data-name="pt" class="cls-1" points="23.42 12.64 22.55 13.27 22.89 12.25 23.42 12.64"/><polygon id="pt-192" data-name="pt" class="cls-1" points="23.05 12.76 22.18 12.13 23.26 12.13 23.05 12.76"/><polygon id="pt-193" data-name="pt" class="cls-1" points="22.82 12.45 23.15 11.43 23.49 12.45 22.82 12.45"/><polygon id="pt-194" data-name="pt" class="cls-1" points="23.05 12.13 24.13 12.13 23.26 12.76 23.05 12.13"/><polygon id="pt-195" data-name="pt" class="cls-1" points="23.42 12.25 23.75 13.27 22.89 12.64 23.42 12.25"/></g></g></g><g id="_star_b4_3" data-name="&lt;star b4&gt;"><g id="star-55" data-name="star"><polygon id="pt-196" data-name="pt" class="cls-1" points="4.57 14.42 3.7 15.05 4.03 14.03 4.57 14.42"/><polygon id="pt-197" data-name="pt" class="cls-1" points="4.19 14.54 3.33 13.91 4.4 13.91 4.19 14.54"/><polygon id="pt-198" data-name="pt" class="cls-1" points="3.96 14.23 4.3 13.21 4.63 14.23 3.96 14.23"/><polygon id="pt-199" data-name="pt" class="cls-1" points="4.19 13.91 5.27 13.91 4.4 14.54 4.19 13.91"/><polygon id="pt-200" data-name="pt" class="cls-1" points="4.57 14.03 4.9 15.05 4.03 14.42 4.57 14.03"/></g><g id="star-56" data-name="star"><polygon id="pt-201" data-name="pt" class="cls-1" points="8.74 14.42 7.88 15.05 8.21 14.03 8.74 14.42"/><polygon id="pt-202" data-name="pt" class="cls-1" points="8.37 14.54 7.5 13.91 8.58 13.91 8.37 14.54"/><polygon id="pt-203" data-name="pt" class="cls-1" points="8.14 14.23 8.48 13.21 8.81 14.23 8.14 14.23"/><polygon id="pt-204" data-name="pt" class="cls-1" points="8.37 13.91 9.45 13.91 8.58 14.54 8.37 13.91"/><polygon id="pt-205" data-name="pt" class="cls-1" points="8.74 14.03 9.08 15.05 8.21 14.42 8.74 14.03"/></g><g id="star-57" data-name="star"><polygon id="pt-206" data-name="pt" class="cls-1" points="12.92 14.42 12.05 15.05 12.39 14.03 12.92 14.42"/><polygon id="pt-207" data-name="pt" class="cls-1" points="12.55 14.54 11.68 13.91 12.76 13.91 12.55 14.54"/><polygon id="pt-208" data-name="pt" class="cls-1" points="12.32 14.23 12.65 13.21 12.99 14.23 12.32 14.23"/><polygon id="pt-209" data-name="pt" class="cls-1" points="12.55 13.91 13.63 13.91 12.76 14.54 12.55 13.91"/><polygon id="pt-210" data-name="pt" class="cls-1" points="12.92 14.03 13.26 15.05 12.39 14.42 12.92 14.03"/></g><g id="star-58" data-name="star"><polygon id="pt-211" data-name="pt" class="cls-1" points="17.1 14.42 16.23 15.05 16.57 14.03 17.1 14.42"/><polygon id="pt-212" data-name="pt" class="cls-1" points="16.73 14.54 15.86 13.91 16.94 13.91 16.73 14.54"/><polygon id="pt-213" data-name="pt" class="cls-1" points="16.5 14.23 16.83 13.21 17.17 14.23 16.5 14.23"/><polygon id="pt-214" data-name="pt" class="cls-1" points="16.73 13.91 17.81 13.91 16.94 14.54 16.73 13.91"/><polygon id="pt-215" data-name="pt" class="cls-1" points="17.1 14.03 17.43 15.05 16.57 14.42 17.1 14.03"/></g><g id="s5-14" data-name="s5"><g id="star-59" data-name="star"><polygon id="pt-216" data-name="pt" class="cls-1" points="21.28 14.42 20.41 15.05 20.75 14.03 21.28 14.42"/><polygon id="pt-217" data-name="pt" class="cls-1" points="20.91 14.54 20.04 13.91 21.12 13.91 20.91 14.54"/><polygon id="pt-218" data-name="pt" class="cls-1" points="20.68 14.23 21.01 13.21 21.34 14.23 20.68 14.23"/><polygon id="pt-219" data-name="pt" class="cls-1" points="20.91 13.91 21.98 13.91 21.12 14.54 20.91 13.91"/><polygon id="pt-220" data-name="pt" class="cls-1" points="21.28 14.03 21.61 15.05 20.75 14.42 21.28 14.03"/></g></g></g><g id="_star_b3_4" data-name="&lt;star b3&gt;"><g id="star-60" data-name="star"><polygon id="pt-221" data-name="pt" class="cls-1" points="2.48 16.21 1.61 16.84 1.94 15.82 2.48 16.21"/><polygon id="pt-222" data-name="pt" class="cls-1" points="2.1 16.33 1.24 15.7 2.31 15.7 2.1 16.33"/><polygon id="pt-223" data-name="pt" class="cls-1" points="1.88 16.01 2.21 14.99 2.54 16.01 1.88 16.01"/><polygon id="pt-224" data-name="pt" class="cls-1" points="2.1 15.7 3.18 15.7 2.31 16.33 2.1 15.7"/><polygon id="pt-225" data-name="pt" class="cls-1" points="2.48 15.82 2.81 16.84 1.94 16.21 2.48 15.82"/></g><g id="star-61" data-name="star"><polygon id="pt-226" data-name="pt" class="cls-1" points="6.66 16.21 5.79 16.84 6.12 15.82 6.66 16.21"/><polygon id="pt-227" data-name="pt" class="cls-1" points="6.28 16.33 5.42 15.7 6.49 15.7 6.28 16.33"/><polygon id="pt-228" data-name="pt" class="cls-1" points="6.05 16.01 6.39 14.99 6.72 16.01 6.05 16.01"/><polygon id="pt-229" data-name="pt" class="cls-1" points="6.28 15.7 7.36 15.7 6.49 16.33 6.28 15.7"/><polygon id="pt-230" data-name="pt" class="cls-1" points="6.66 15.82 6.99 16.84 6.12 16.21 6.66 15.82"/></g><g id="star-62" data-name="star"><polygon id="pt-231" data-name="pt" class="cls-1" points="10.83 16.21 9.96 16.84 10.3 15.82 10.83 16.21"/><polygon id="pt-232" data-name="pt" class="cls-1" points="10.46 16.33 9.59 15.7 10.67 15.7 10.46 16.33"/><polygon id="pt-233" data-name="pt" class="cls-1" points="10.23 16.01 10.57 14.99 10.9 16.01 10.23 16.01"/><polygon id="pt-234" data-name="pt" class="cls-1" points="10.46 15.7 11.54 15.7 10.67 16.33 10.46 15.7"/><polygon id="pt-235" data-name="pt" class="cls-1" points="10.83 15.82 11.17 16.84 10.3 16.21 10.83 15.82"/></g><g id="star-63" data-name="star"><polygon id="pt-236" data-name="pt" class="cls-1" points="15.01 16.21 14.14 16.84 14.48 15.82 15.01 16.21"/><polygon id="pt-237" data-name="pt" class="cls-1" points="14.64 16.33 13.77 15.7 14.85 15.7 14.64 16.33"/><polygon id="pt-238" data-name="pt" class="cls-1" points="14.41 16.01 14.74 14.99 15.08 16.01 14.41 16.01"/><polygon id="pt-239" data-name="pt" class="cls-1" points="14.64 15.7 15.72 15.7 14.85 16.33 14.64 15.7"/><polygon id="pt-240" data-name="pt" class="cls-1" points="15.01 15.82 15.35 16.84 14.48 16.21 15.01 15.82"/></g><g id="s5-15" data-name="s5"><g id="star-64" data-name="star"><polygon id="pt-241" data-name="pt" class="cls-1" points="19.19 16.21 18.32 16.84 18.66 15.82 19.19 16.21"/><polygon id="pt-242" data-name="pt" class="cls-1" points="18.82 16.33 17.95 15.7 19.03 15.7 18.82 16.33"/><polygon id="pt-243" data-name="pt" class="cls-1" points="18.59 16.01 18.92 14.99 19.26 16.01 18.59 16.01"/><polygon id="pt-244" data-name="pt" class="cls-1" points="18.82 15.7 19.89 15.7 19.03 16.33 18.82 15.7"/><polygon id="pt-245" data-name="pt" class="cls-1" points="19.19 15.82 19.52 16.84 18.66 16.21 19.19 15.82"/></g></g><g id="s6-14" data-name="s6"><g id="star-65" data-name="star"><polygon id="pt-246" data-name="pt" class="cls-1" points="23.37 16.21 22.5 16.84 22.83 15.82 23.37 16.21"/><polygon id="pt-247" data-name="pt" class="cls-1" points="23 16.33 22.13 15.7 23.2 15.7 23 16.33"/><polygon id="pt-248" data-name="pt" class="cls-1" points="22.77 16.01 23.1 14.99 23.43 16.01 22.77 16.01"/><polygon id="pt-249" data-name="pt" class="cls-1" points="23 15.7 24.07 15.7 23.2 16.33 23 15.7"/><polygon id="pt-250" data-name="pt" class="cls-1" points="23.37 15.82 23.7 16.84 22.83 16.21 23.37 15.82"/></g></g></g></g></g></g></svg>